<?xml version="1.0" encoding="UTF-8" standalone="no"?>
<!-- Created with Inkscape (http://www.inkscape.org/) -->

<svg
   xmlns:dc="http://purl.org/dc/elements/1.1/"
   xmlns:cc="http://creativecommons.org/ns#"
   xmlns:rdf="http://www.w3.org/1999/02/22-rdf-syntax-ns#"
   xmlns:svg="http://www.w3.org/2000/svg"
   xmlns="http://www.w3.org/2000/svg"
   xmlns:sodipodi="http://sodipodi.sourceforge.net/DTD/sodipodi-0.dtd"
   xmlns:inkscape="http://www.inkscape.org/namespaces/inkscape"
   width="21.37142mm"
   height="6.3499899mm"
   viewBox="0 0 21.37142 6.3499899"
   version="1.1"
   id="svg1215"
   inkscape:version="0.92.4 (5da689c313, 2019-01-14)"
   sodipodi:docname="totvs-logo-menu2.svg">
  <defs
     id="defs1209" />
  <sodipodi:namedview
     id="base"
     pagecolor="#ffffff"
     bordercolor="#666666"
     borderopacity="1.0"
     inkscape:pageopacity="0.0"
     inkscape:pageshadow="2"
     inkscape:zoom="2.3040201"
     inkscape:cx="49.09051"
     inkscape:cy="-56.02181"
     inkscape:document-units="mm"
     inkscape:current-layer="layer1"
     showgrid="false"
     inkscape:window-width="1878"
     inkscape:window-height="1043"
     inkscape:window-x="1408"
     inkscape:window-y="0"
     inkscape:window-maximized="1" />
  <metadata
     id="metadata1212">
    <rdf:RDF>
      <cc:Work
         rdf:about="">
        <dc:format>image/svg+xml</dc:format>
        <dc:type
           rdf:resource="http://purl.org/dc/dcmitype/StillImage" />
        <dc:title />
      </cc:Work>
    </rdf:RDF>
  </metadata>
  <g
     inkscape:label="Layer 1"
     inkscape:groupmode="layer"
     id="layer1"
     transform="translate(-128.40953,-161.53334)">
    <path
       id="path3970"
       d="m 138.39199,163.61216 h -0.74877 v 2.72706 a 0.09339792,0.09339792 0 0 1 -0.0923,0.0939 h -0.60536 a 0.09313333,0.09313333 0 0 1 -0.0923,-0.0939 v -2.72706 h -0.75301 a 0.08942917,0.08942917 0 0 1 -0.0926,-0.0892 v -0.48286 c 0,-0.0513 0.0415,-0.0889 0.0926,-0.0889 h 2.29182 c 0.0508,0 0.0968,0.0376 0.0968,0.0889 v 0.48286 c 0,0.0516 -0.046,0.0892 -0.0968,0.0892 z m 1.64916,2.86306 c -0.76227,0 -1.3679,-0.41698 -1.3679,-1.50416 v -0.55774 c 0,-1.08743 0.60563,-1.50415 1.3679,-1.50415 0.76253,0 1.36763,0.41672 1.36763,1.50415 v 0.55774 c 0,1.08744 -0.6051,1.50416 -1.36789,1.50416 z m 0.57282,-2.0619 c 0,-0.56224 -0.18468,-0.80142 -0.57282,-0.80142 -0.38789,0 -0.56833,0.23918 -0.56833,0.80142 v 0.55774 c 0,0.56224 0.18044,0.80116 0.56833,0.80116 0.38814,0 0.57282,-0.23892 0.57282,-0.80116 z m 3.35439,-0.80115 h -0.7485 v 2.72705 a 0.09313333,0.09313333 0 0 1 -0.0923,0.0939 h -0.60511 a 0.09313333,0.09313333 0 0 1 -0.0921,-0.0939 v -2.72706 h -0.75328 a 0.08969375,0.08969375 0 0 1 -0.0926,-0.0892 v -0.48286 c 0,-0.0513 0.0418,-0.0889 0.0926,-0.0889 h 2.29157 c 0.0508,0 0.0971,0.0376 0.0971,0.0889 v 0.48287 c 0,0.0516 -0.0463,0.0892 -0.0971,0.0892 z m 3.24855,-0.56277 -0.6887,2.90512 c -0.10637,0.45032 -0.44371,0.52043 -0.76253,0.52043 -0.31883,0 -0.66067,-0.0701 -0.76729,-0.52043 l -0.68846,-2.90512 c 0,-0.01 -0.004,-0.014 -0.004,-0.0236 0,-0.0423 0.037,-0.0749 0.0831,-0.0749 h 0.64267 c 0.046,0 0.0828,0.0373 0.0921,0.0844 l 0.57759,2.70404 c 0.009,0.0513 0.023,0.0701 0.0648,0.0701 0.0415,0 0.0556,-0.0185 0.0648,-0.0701 l 0.57759,-2.70404 c 0.009,-0.0471 0.0415,-0.0847 0.0876,-0.0847 h 0.64691 c 0.046,0 0.0786,0.0283 0.0786,0.0751 0,0.005 -0.005,0.014 -0.005,0.0236 z m 1.30281,3.42555 c -0.36512,0 -0.63764,-0.0423 -0.87312,-0.10318 -0.0463,-0.0138 -0.0926,-0.0423 -0.0926,-0.0937 v -0.45932 c 0,-0.0653 0.037,-0.0889 0.0831,-0.0889 h 0.014 c 0.18918,0.0188 0.69771,0.0561 0.87762,0.0561 0.31909,0 0.41117,-0.10319 0.41117,-0.32808 0,-0.13573 -0.0648,-0.21061 -0.30454,-0.35587 l -0.63765,-0.38417 c -0.42995,-0.25797 -0.54504,-0.55298 -0.54504,-0.89535 0,-0.51541 0.28575,-0.91361 1.18269,-0.91361 0.33708,0 0.80354,0.0561 0.97922,0.10319 0.0368,0.009 0.0693,0.0325 0.0693,0.0841 v 0.47334 c 0,0.0423 -0.0185,0.0796 -0.0786,0.0796 h -0.009 c -0.12965,-0.009 -0.66569,-0.0516 -0.97975,-0.0516 -0.26326,0 -0.36036,0.0796 -0.36036,0.24818 0,0.1315 0.0601,0.19235 0.30956,0.32808 l 0.59108,0.32359 c 0.48075,0.26247 0.62415,0.5715 0.62415,0.95117 0,0.49689 -0.32332,1.02659 -1.26127,1.02659 z m -16.97991,-4.94161 c 1.72932,0 3.13055,1.4216 3.13055,3.17499 0,1.7534 -1.40123,3.175 -3.13055,3.175 -1.72878,0 -3.13028,-1.4216 -3.13028,-3.175 0,-1.75339 1.4015,-3.17499 3.13028,-3.17499 z m 2.11032,4.3508 c 0.15452,-0.1442 0.15505,-2.33944 0,-2.56381 -0.19949,-0.17277 -2.80934,-0.84217 -3.00831,-0.77179 -0.0714,0.0669 -0.1098,0.57229 -0.11562,1.11839 -0.54928,-0.13123 -1.02288,-0.22357 -1.10332,-0.19526 -0.15451,0.14473 -0.15451,2.34024 0,2.56381 0.19897,0.17278 2.80935,0.84244 3.00858,0.77179 0.0714,-0.0667 0.1098,-0.57203 0.11536,-1.11813 0.54901,0.13124 1.02261,0.22358 1.10331,0.195 z m -1.2184,-1.64041 c 0.0833,0.12038 0.1217,0.81041 0.11535,1.44541 -0.81094,-0.1942 -1.78699,-0.47387 -1.90579,-0.57679 -0.0828,-0.12038 -0.12091,-0.81042 -0.11483,-1.44542 0.81095,0.19421 1.78647,0.47361 1.90527,0.5768 z"
       inkscape:connector-curvature="0"
       style="display:inline;fill:#ffffff;fill-opacity:0.96568626;fill-rule:evenodd;stroke-width:0.26458332" />
  </g>
</svg>
